<svg version="1" id="Layer_1" xmlns="http://www.w3.org/2000/svg" viewBox="0 0 699.7 155.2"><style>.st0{fill:#414042}.st1{fill:#f26522}</style><path class="st0" d="M241.7 35.9c-1.2-3.6-3-4.4-6.8-4.4h-10.5c-3.8 0-5.5.8-6.8 4.6L184.8 123c-1.4 3.7-.4 5.5 3.7 5.5h9.4c6.8 0 8.6-1.1 10-5.1l4.4-12.8H246l4.2 12.8c1.2 4 3.3 5.1 10.1 5.1h10.3c3.9 0 5-1.8 3.7-5.5l-32.6-87.1zm-23.6 56.7l7.1-21.3c3.3-9.7 3.2-16.6 3.2-16.6h1.2s.3 6.9 3.5 16.8l7.1 21.2h-22.1zm116.6-61.1h-64.9c-4.2 0-5.6 1.4-5.6 5.6v9.2c0 4.1 1.4 5.5 5.6 5.5h21.4V123c0 4.2 1.4 5.6 5.4 5.6h11.1c4.2 0 5.6-1.4 5.6-5.6V51.7h21.3c4.2 0 5.6-1.4 5.6-5.5V37c.1-4.1-1.2-5.5-5.5-5.5zm58.4 35.7H371V51.3h41.1c4.1 0 5.6-1.5 5.6-5.6v-8.6c0-4.2-1.5-5.6-5.6-5.6h-57.8c-4.1 0-5.6 1.4-5.6 5.6v86.1c0 4.1 1.6 5.3 5.4 5.3H393c18.9 0 31.1-11.7 31.1-30.6.1-19.1-12.2-30.7-31-30.7zm-3.2 41.5h-19V87h19c7.2 0 11.3 4.4 11.3 10.9.1 6.4-4 10.8-11.3 10.8zm77.1 36.8h1.7v-131H467v131zM517.5 52c-1.4 0-3.4-.5-4.6-1.6l-.9 1.3c1 1.2 3.8 1.9 5.7 1.9 3.5 0 6-1.6 6-4.3 0-1.7-1.1-3.2-3.2-3.4v-.1c1.9-.7 2.6-2.1 2.6-3.5 0-2.4-1.8-3.8-5.2-3.8-2.2 0-4.3.7-5.5 1.9l.7 1.3c1.1-.9 2.5-1.6 4.6-1.6 2.2 0 3.7.9 3.7 2.5 0 1.5-1.3 2.7-3 2.7h-2.3v1.4h2.5c2.1 0 3.4.9 3.4 2.4 0 1.8-1.9 2.9-4.5 2.9zm73.1-13.2h-1.7v14.5h1.7V38.8zm37.7 5.8h-7.4v1.6h7.4v-1.6zm-27 8.7l-7.8-7.6 7.2-6.9h-2.2l-7 7 7.5 7.5h2.3zm-62.2-12.1v12.1h1.7V38.8h-1.7l-9.7 12.1V38.8h-1.7v14.5h1.7l9.7-12.1zm-45.4 4.4h10.9l3.3 7.7h1.9l-9.9-22.8h-1.5l-9.9 22.8h1.8l3.4-7.7zm5.5-12.6l4.7 11h-9.4l4.7-11zm64.5 20.3h1.7V40.5h5.8v-1.7h-13.3v1.7h5.8v12.8zm46.1-14.8c-4.5 0-7.6 3.2-7.6 7.6 0 4.4 3.1 7.6 7.6 7.6s7.6-3.2 7.6-7.6c0-4.4-3.1-7.6-7.6-7.6zm0 13.5c-3.4 0-5.9-2.5-5.9-6s2.5-6 5.9-6c3.4 0 5.9 2.5 5.9 6-.1 3.6-2.5 6-5.9 6zm-59.7-13.5c-1.7 0-3.3.5-4.6 1.3l.5 1.4c1.3-.7 2.4-1.1 4.1-1.1 3.6 0 3.8 2.2 3.8 5.7-1.2-.8-2.8-1.1-3.9-1.1-3.1 0-5.5 1.6-5.5 4.5 0 2.7 1.8 4.3 4.5 4.3s4.1-1.2 5-2.4v2.2h1.7v-9c-.2-3.7-1.5-5.8-5.6-5.8zm3.7 11.2c-.8 1.1-2 2.3-4.5 2.3-1.8 0-3.2-1-3.2-2.8 0-2.1 2-3 3.9-3 1.5 0 2.7.4 3.8 1.2v2.3zm31.9 1.6l-.8-1.2c-1 1.2-2.7 2-4.5 2-3.4 0-6-2.3-6-6 0-3.5 2.7-6 5.7-6 1.7 0 3.3.4 4.6 1.6l.8-1.4c-1.4-1.3-3.4-1.8-5.7-1.8-4.1 0-7.2 3.3-7.2 7.6 0 4.6 3.2 7.6 7.7 7.6 2-.1 4.1-.9 5.4-2.4zm24.8 23.6c-1.7 0-3.3.5-4.6 1.3l.5 1.4c1.3-.7 2.4-1.1 4.1-1.1 3.6 0 3.8 2.2 3.8 5.7-1.2-.8-2.8-1.1-3.9-1.1-3.1 0-5.5 1.6-5.5 4.5 0 2.7 1.8 4.3 4.5 4.3s4.1-1.2 5-2.4v2.2h1.7v-9c-.2-3.7-1.5-5.8-5.6-5.8zm3.7 11.1c-.8 1.1-2 2.3-4.5 2.3-1.8 0-3.2-1-3.2-2.8 0-2.1 2-3 3.9-3 1.5 0 2.7.4 3.8 1.2V86zm-27.3-10.8h-2.2l-7 7 7.5 7.5h2.3l-7.8-7.6 7.2-6.9zm44.7 6.3h-9.4v-6.4h-1.7v14.5h1.7V83h9.4v6.6h1.7V75.2h-1.7v6.3zm-35.9-6.6c-4.8 0-7.4 3.3-7.4 7.6 0 4.6 3.1 7.6 7.7 7.6 1.9 0 4-.7 5.4-2.1l-.5-1.3c-1 1-2.7 1.8-4.7 1.8-3.5 0-5.8-2.1-5.9-5.6h12c.1-.4.1-.8.1-1.4-.1-4-2.9-6.6-6.7-6.6zm-5.6 6.5c.3-2.8 2.2-4.9 5.4-4.9 3 0 5 1.9 5 4.9h-10.4zm80.5 5.9V75.2h-1.7v14.5h1.7l9.7-12.1v12.1h1.7V75.2h-1.7l-9.7 12.1zM698 75.2l-9.7 12.1V75.2h-1.7v14.5h1.7l9.7-12.1v12.1h1.7V75.2H698zm-4.6-3.5c2.6 0 4.4-1.8 4.4-4.1h-1.5c0 1.6-1.2 2.8-2.9 2.8-1.8 0-3-1.3-3-2.8h-1.5c0 2.4 1.6 4.1 4.5 4.1zM497 89.7h1.8V68.8h8.4v-1.7h-18.5v1.7h8.4v20.9zm147.9-1.3c-3.4 0-6-2.3-6-6 0-3.5 2.7-6 5.7-6 1.7 0 3.3.4 4.6 1.6l.8-1.4c-1.4-1.3-3.4-1.8-5.7-1.8-4.1 0-7.2 3.3-7.2 7.6 0 4.6 3.2 7.6 7.7 7.6 2.1 0 4.3-.8 5.5-2.4l-.8-1.2c-1.1 1.2-2.8 2-4.6 2zm20.4-13.2h-2.2l-7 7 7.5 7.5h2.3l-7.8-7.6 7.2-6.9zm-11.8 14.5h1.7V75.2h-1.7v14.5zm-89.9-14.8c-4.5 0-7.6 3.2-7.6 7.6 0 4.4 3.1 7.6 7.6 7.6s7.6-3.2 7.6-7.6c.1-4.4-3-7.6-7.6-7.6zm0 13.5c-3.4 0-5.9-2.5-5.9-6s2.5-6 5.9-6c3.4 0 5.9 2.5 5.9 6 0 3.6-2.4 6-5.9 6zm-10.5-6c0-4.4-3.1-7.6-7.6-7.6s-7.6 3.2-7.6 7.6c0 4.4 3.1 7.6 7.6 7.6s7.6-3.2 7.6-7.6zm-13.5 0c0-3.5 2.5-6 5.9-6 3.4 0 5.8 2.5 5.8 6s-2.4 6-5.8 6-5.9-2.5-5.9-6zm35.5 7.3h1.7V75.2h-1.7v14.5zm-40.7 0h2.1l-5.8-7.5 5.5-7h-2l-4.7 6-4.6-6h-2.1l5.5 7.1-5.8 7.4h2l5-6.4 4.9 6.4zm-16.8 0h1.7V75.2h-1.7l-9.7 12.1V75.2h-1.7v14.5h1.7l9.7-12.1v12.1zm36.5 21.8h-2.2l-7 7 7.5 7.5h2.3l-7.8-7.6 7.2-6.9zm-39.3-.3c-1.7 0-3.3.5-4.6 1.3l.5 1.4c1.3-.7 2.4-1.1 4.1-1.1 3.6 0 3.8 2.2 3.8 5.7-1.2-.8-2.8-1.1-3.9-1.1-3.1 0-5.5 1.6-5.5 4.5 0 2.7 1.8 4.3 4.5 4.3s4.1-1.2 5-2.4v2.2h1.7v-9c-.2-3.7-1.6-5.8-5.6-5.8zm3.7 11.2c-.8 1.1-2 2.3-4.5 2.3-1.8 0-3.2-1-3.2-2.8 0-2.1 2-3 3.9-3 1.5 0 2.7.4 3.8 1.2v2.3zm23.7 3.6h1.7v-14.5h-1.7V126zm-6.4-8.1h-9.4v-6.4h-1.7V126h1.7v-6.6h9.4v6.6h1.7v-14.5h-1.7v6.4zm-38.1-5.3c-.9 0-2.5.1-3.8.2v-7.7h10.7v-1.7h-12.5V126c1.3 0 3.1.1 5.1.1 5.4 0 8.7-2.4 8.7-7-.1-4-2.9-6.5-8.2-6.5zm-.3 11.9c-1.3 0-2.5-.1-3.6-.1v-9.9c1.4-.2 2.8-.2 3.8-.2 4.3 0 6.4 1.9 6.4 4.9.1 3.4-2.2 5.3-6.6 5.3z"/><path class="st1" d="M129.3 0H25.9C11.6 0 0 11.6 0 25.9v103.4c0 14.2 11.6 25.9 25.9 25.9h103.4c14.2 0 25.9-11.6 25.9-25.9V25.9C155.1 11.6 143.5 0 129.3 0zM147 126.6c-.2.3-.7.4-1 .2-20-12-43.4-19-68.4-19-25 0-48.4 6.9-68.4 19-.4.2-.8.1-1-.2-.2-.3-.2-.8.2-1.1l.1-.1c18.1-13.9 33.8-31.5 45.9-52.5 12.1-21 19.5-43.4 22.5-66 .1-.4.4-.7.8-.7s.7.3.8.7c3 22.6 10.4 45 22.5 66s27.8 38.6 45.9 52.5l.1.1c.2.2.3.7 0 1.1z"/></svg>