<svg id="Layer_1" xmlns="http://www.w3.org/2000/svg" viewBox="0 0 424.1 155.2"><style>.st0{fill:#414042}.st1{fill:#f26522}</style><path class="st0" d="M241.7 35.9c-1.2-3.6-3-4.4-6.8-4.4h-10.5c-3.8 0-5.5.8-6.8 4.6L184.8 123c-1.4 3.7-.4 5.5 3.7 5.5h9.4c6.8 0 8.6-1.1 10-5.1l4.4-12.8H246l4.2 12.8c1.2 4 3.3 5.1 10.1 5.1h10.3c3.9 0 5-1.8 3.7-5.5l-32.6-87.1zm-23.6 56.7l7.1-21.3c3.3-9.7 3.2-16.6 3.2-16.6h1.2s.3 6.9 3.5 16.8l7.1 21.2-22.1-.1zm116.6-61.1h-64.9c-4.2 0-5.6 1.4-5.6 5.6v9.2c0 4.1 1.4 5.5 5.6 5.5h21.4V123c0 4.2 1.4 5.6 5.4 5.6h11.1c4.2 0 5.6-1.4 5.6-5.6V51.7h21.3c4.2 0 5.6-1.4 5.6-5.5V37c.1-4.1-1.2-5.5-5.5-5.5zm58.4 35.7H371V51.3h41.1c4.1 0 5.6-1.5 5.6-5.6v-8.6c0-4.2-1.5-5.6-5.6-5.6h-57.8c-4.1 0-5.6 1.4-5.6 5.6v86.1c0 4.1 1.6 5.3 5.4 5.3H393c18.9 0 31.1-11.7 31.1-30.6.1-19.1-12.2-30.7-31-30.7zm-3.2 41.5h-19V87h19c7.2 0 11.3 4.4 11.3 10.9.1 6.4-4 10.8-11.3 10.8z"/><path class="st1" d="M129.3 0H25.9C11.6 0 0 11.6 0 25.9v103.4c0 14.2 11.6 25.9 25.9 25.9h103.4c14.2 0 25.9-11.6 25.9-25.9V25.9C155.1 11.6 143.5 0 129.3 0zM147 126.6c-.2.3-.7.4-1 .2-20-12-43.4-19-68.4-19s-48.4 6.9-68.4 19c-.4.2-.8.1-1-.2-.2-.3-.2-.8.2-1.1l.1-.1c18.1-13.9 33.8-31.5 45.9-52.5s19.5-43.4 22.5-66c.1-.4.4-.7.8-.7s.7.3.8.7c3 22.6 10.4 45 22.5 66s27.8 38.6 45.9 52.5l.1.1c.2.2.3.7 0 1.1z"/></svg>