<svg version="1" id="svg2178" xmlns="http://www.w3.org/2000/svg" viewBox="77.4 95.9 1129.8 434"><style>.st0{fill:#30417e}</style><path id="path2187" class="st0" d="M831.9 412.9v-117h-82v-55h236l-9.2 27.3-9.2 27.3-35.7.3-35.7.3v234h-64V412.9zm-290-28.1V240.7l63.3.4c68.2.4 67.5.4 83 6 10.5 3.8 17.5 8.5 26.9 17.8 7.2 7.2 9.4 10.2 13.2 18 6 12.3 8.1 22.7 7.3 36.3-1.3 23.3-12.6 42.8-30.7 53.2l-5.3 3 8.2 4.3c9.9 5.2 22.2 16.3 27.9 25.3 10.8 17 13.9 41.7 8.2 64.4-1.1 4.3-4 12-6.6 17.1-3.8 7.7-6.1 10.8-12.8 17.5-9.4 9.3-16.1 13.6-28.4 18.2-16.5 6.1-20.6 6.4-90.9 6.4h-63.3V384.8zm115.2 86.7c6.2-3 9.7-6.6 13.2-13.6 8.7-17.2 3.6-40-10.6-47.2-5.5-2.8-17.6-4-36.9-3.7l-16.5.3-.3 32.5c-.1 17.9 0 33.1.3 33.9.4 1.1 4.5 1.3 22.8 1 22-.4 22.4-.5 28-3.2zm-5-120.7c15.5-5.2 21.9-29.4 11.4-43.2-6.7-8.7-14.2-10.7-40.5-10.7h-17.2v56.2l21.3-.5c13.2-.3 22.7-1 25-1.8zm349.8 33.6V239.9h96.5c53.1 0 96.5.3 96.5.8 0 .4-4.1 12.8-9.2 27.5l-9.2 26.8h-109.6v53.8l28.8.5c19.1.4 31.8 1.1 37.8 2.1 31.9 5.5 52.9 19.7 65 44.1 7.3 14.8 8.8 21.9 8.8 43 0 16.2-.3 18.9-2.6 27.6-9.6 35.5-36.3 56.8-77.8 61.9-5 .6-32.5 1-66.8 1h-58.3V384.4zm105.7 88.5c15.5-2 24.1-10.1 27.3-25.5 3.4-16.5-2.8-32.9-14.9-38.9-7.4-3.7-13.9-4.6-34.2-4.6h-19v70h16.8c9.2-.1 20-.5 24-1zm-931.8-89.7c-12.9-8.8-38.3-33.1-50.7-48.4-18.8-23.3-34.3-51.7-44.2-80.8-4.9-14.4-4.9-13.8 1.6-32.2 9-25.1 24.8-53.4 41.8-75 8.5-10.8 33.5-35.5 44.4-43.8l9.3-7.2h253.6l-2.5 8.3c-1.4 4.5-3.9 11.7-5.5 16l-3 7.8H187l-5.8 4.9c-3.2 2.7-7.4 6.3-9.3 8l-3.5 3.1h122.2c67.2 0 122.3.2 122.3.5 0 .8-7.1 12.7-13.3 22.3l-5.9 9.2-126.6.3-126.6.3-4.8 7c-2.6 3.8-4.8 7.6-4.8 8.3 0 1 25.4 1.3 124.2 1.3h124.2l-8 8.1c-4.4 4.4-12.1 11.4-17.1 15.5l-9.1 7.4H114l-3 8.2-3 8.2 3 8.5c13.1 37.1 36.4 71.9 65 97.2l7.8 6.8h103c56.6 0 103-.1 103-.3 0-1-5.8-14.2-9.2-21.1-9.4-18.6-21.4-35.2-36.5-50.4l-9.2-9.2-98.3-.3-98.3-.3-4.5-9c-2.5-5-5.5-11.8-6.7-15.3l-2.2-6.2h220.8l14.7 14.2c28.2 27.3 47.6 55.8 60 87.6 3.9 10 8.9 28.5 10 36.9l.7 5.3H304.7c-116.8 0-126.6-.2-128.9-1.7z"/></svg>